<?xml version="1.0" encoding="utf-8"?><!-- Generator: Adobe Illustrator 17.0.0, SVG Export Plug-In . SVG Version: 6.00 Build 0)  --><!DOCTYPE svg PUBLIC "-//W3C//DTD SVG 1.1//EN" "http://www.w3.org/Graphics/SVG/1.1/DTD/svg11.dtd"><svg xmlns="http://www.w3.org/2000/svg" xmlns:xlink="http://www.w3.org/1999/xlink" viewBox="0 0 50 50" width="250px" height="250px"><rect x="0" fill="none" width="50" height="50"/><path d="M43.235,13.981c-0.124-0.038-0.253-0.05-0.384-0.037c-0.075,0.008-7.6,0.753-10.269,1.062c-0.103,0.012-0.201,0.018-0.297,0.018c-0.254,0-0.705-0.045-0.873-0.35c-0.182-0.327-0.128-1.072,0.566-2.179l0.117-0.186c1.066-1.697,1.602-2.55,1.602-4.311c0-3.859-3.208-7-7.15-7s-7.15,3.141-7.15,7c0,1.769,0.631,3.006,1.721,4.546c0.771,1.091,0.876,1.805,0.73,2.085c-0.139,0.269-0.69,0.417-1.384,0.371c-2.473-0.167-10.128-1.047-10.157-1.05c-0.171-0.027-0.333-0.04-0.487-0.04c-0.876,0-2.388,0.424-2.714,3.251c-0.086,0.414-0.488,2.644-1.072,10.397c-0.062,0.317-0.023,0.607,0.022,0.85c0.213,1.096,0.936,1.75,1.932,1.75c1.033,0,2.219-0.693,3.797-1.812C13.101,27.415,14.188,27,15.309,27c2.84,0,5.15,2.243,5.15,5s-2.311,5-5.15,5c-1.325,0-2.231-0.361-3.592-1.431c-1.579-1.241-2.757-1.819-3.706-1.819c-0.841,0-1.509,0.454-1.833,1.245c-0.189,0.46-0.213,1.16-0.146,1.548c0.521,5.441,0.773,6.43,0.995,7.301l0.094,0.38C7.508,45.91,8.695,47,10.146,47h32.035C44.501,47,46,45.528,46,43.25V17.388C46,15.674,45.07,14.527,43.235,13.981z"/></svg>