<?xml version="1.0" encoding="iso-8859-1"?>
<!-- Generator: Adobe Illustrator 25.2.3, SVG Export Plug-In . SVG Version: 6.00 Build 0)  -->
<svg version="1.1" id="Layer_1" xmlns="http://www.w3.org/2000/svg" xmlns:xlink="http://www.w3.org/1999/xlink" x="0px" y="0px"
	 viewBox="0 0 50 50" style="enable-background:new 0 0 50 50;" xml:space="preserve">
<path d="M19.852,7.761l-15,2.25C4.362,10.085,4,10.505,4,11v12c0,0.553,0.448,1,1,1h15c0.552,0,1-0.447,1-1V8.75
	c0-0.291-0.127-0.567-0.348-0.758C20.432,7.803,20.139,7.721,19.852,7.761z"/>
<path d="M45.652,4.242c-0.22-0.189-0.512-0.271-0.801-0.231l-21,3.15C23.362,7.235,23,7.655,23,8.15V23c0,0.553,0.448,1,1,1h21
	c0.552,0,1-0.447,1-1V5C46,4.709,45.873,4.433,45.652,4.242z"/>
<path d="M20,26H5c-0.552,0-1,0.447-1,1v12c0,0.495,0.362,0.915,0.852,0.989l15,2.25c0.05,0.007,0.099,0.011,0.148,0.011
	c0.238,0,0.47-0.085,0.652-0.242C20.873,41.817,21,41.541,21,41.25V27C21,26.447,20.552,26,20,26z"/>
<path d="M45,26H24c-0.552,0-1,0.447-1,1v14.85c0,0.495,0.362,0.915,0.852,0.989l21,3.15C44.901,45.996,44.951,46,45,46
	c0.238,0,0.47-0.085,0.652-0.242C45.873,45.567,46,45.291,46,45V27C46,26.447,45.552,26,45,26z"/>
</svg>